<svg width="2616" height="994" viewBox="0 0 2616 994" fill="none" xmlns="http://www.w3.org/2000/svg">
<path d="M0 23.15C0 10.3646 10.3646 0 23.15 0H2592.85C2605.64 0 2616 10.3646 2616 23.15V970.85C2616 983.635 2605.64 994 2592.85 994H23.1498C10.3644 994 0 983.635 0 970.85V23.15Z" fill="#D9D9D9"/>
<path d="M256 668L502.972 163" stroke="#AB92BF" stroke-width="25"/>
<line x1="244.961" y1="686.011" x2="900.961" y2="685" stroke="#AB92BF" stroke-width="50"/>
<line x1="532.44" y1="128.233" x2="941.44" y2="680.233" stroke="#AB92BF" stroke-width="100"/>
<path d="M1391.67 265V192H1415.57C1420.31 192 1424.41 192.9 1427.87 194.7C1431.41 196.5 1434.11 199.067 1435.97 202.4C1437.91 205.667 1438.87 209.533 1438.87 214C1438.87 218.4 1437.91 222.267 1435.97 225.6C1434.04 228.933 1431.34 231.5 1427.87 233.3C1424.41 235.1 1420.31 236 1415.57 236H1402.47V265H1391.67ZM1402.47 226.3H1415.57C1419.31 226.3 1422.27 225.2 1424.47 223C1426.74 220.733 1427.87 217.733 1427.87 214C1427.87 210.2 1426.74 207.2 1424.47 205C1422.27 202.8 1419.31 201.7 1415.57 201.7H1402.47V226.3ZM1467.73 266C1462 266 1457.47 264.533 1454.13 261.6C1450.87 258.6 1449.23 254.533 1449.23 249.4C1449.23 244.2 1450.97 240.133 1454.43 237.2C1457.97 234.2 1462.8 232.7 1468.93 232.7H1484.23V227.6C1484.23 224.6 1483.3 222.267 1481.43 220.6C1479.57 218.933 1476.93 218.1 1473.53 218.1C1470.53 218.1 1468.03 218.767 1466.03 220.1C1464.03 221.367 1462.87 223.067 1462.53 225.2H1451.93C1452.53 220.267 1454.8 216.333 1458.73 213.4C1462.73 210.467 1467.77 209 1473.83 209C1480.37 209 1485.53 210.667 1489.33 214C1493.13 217.267 1495.03 221.733 1495.03 227.4V265H1484.53V254.9H1482.73L1484.53 252.9C1484.53 256.9 1483 260.1 1479.93 262.5C1476.87 264.833 1472.8 266 1467.73 266ZM1470.93 257.7C1474.8 257.7 1477.97 256.733 1480.43 254.8C1482.97 252.8 1484.23 250.267 1484.23 247.2V240H1469.13C1466.33 240 1464.1 240.767 1462.43 242.3C1460.83 243.833 1460.03 245.933 1460.03 248.6C1460.03 251.4 1461 253.633 1462.93 255.3C1464.87 256.9 1467.53 257.7 1470.93 257.7ZM1520.4 283L1528.3 261.8L1507.8 210H1519.7L1531.2 241C1531.66 242.333 1532.13 243.933 1532.6 245.8C1533.06 247.667 1533.46 249.2 1533.8 250.4C1534.06 249.2 1534.43 247.667 1534.9 245.8C1535.36 243.933 1535.83 242.333 1536.3 241L1547.1 210H1558.6L1531.8 283H1520.4ZM1569.06 265V210H1578.06V217H1580.06L1578.56 219.1C1578.56 216.033 1579.39 213.6 1581.06 211.8C1582.72 209.933 1584.96 209 1587.76 209C1590.76 209 1593.06 210.167 1594.66 212.5C1596.32 214.833 1597.16 218.033 1597.16 222.1L1594.76 217H1598.56L1596.96 219.1C1596.96 216.033 1597.79 213.6 1599.46 211.8C1601.19 209.933 1603.49 209 1606.36 209C1609.76 209 1612.42 210.3 1614.36 212.9C1616.29 215.433 1617.26 218.833 1617.26 223.1V265H1607.66V223.4C1607.66 221.333 1607.19 219.733 1606.26 218.6C1605.39 217.467 1604.12 216.9 1602.46 216.9C1600.79 216.9 1599.49 217.467 1598.56 218.6C1597.69 219.667 1597.26 221.233 1597.26 223.3V265H1589.16V223.4C1589.16 221.267 1588.69 219.667 1587.76 218.6C1586.82 217.467 1585.49 216.9 1583.76 216.9C1582.09 216.9 1580.82 217.467 1579.96 218.6C1579.16 219.667 1578.76 221.233 1578.76 223.3V265H1569.06ZM1653.12 266C1648.65 266 1644.72 265.133 1641.32 263.4C1637.98 261.6 1635.42 259.1 1633.62 255.9C1631.82 252.7 1630.92 248.967 1630.92 244.7V230.3C1630.92 225.967 1631.82 222.233 1633.62 219.1C1635.42 215.9 1637.98 213.433 1641.32 211.7C1644.72 209.9 1648.65 209 1653.12 209C1657.65 209 1661.58 209.9 1664.92 211.7C1668.25 213.433 1670.82 215.9 1672.62 219.1C1674.42 222.233 1675.32 225.967 1675.32 230.3V240.1H1641.32V244.7C1641.32 248.767 1642.32 251.867 1644.32 254C1646.38 256.133 1649.35 257.2 1653.22 257.2C1656.35 257.2 1658.88 256.667 1660.82 255.6C1662.75 254.467 1663.95 252.833 1664.42 250.7H1675.12C1674.32 255.367 1671.92 259.1 1667.92 261.9C1663.92 264.633 1658.98 266 1653.12 266ZM1664.92 233.6V230.2C1664.92 226.2 1663.92 223.1 1661.92 220.9C1659.92 218.7 1656.98 217.6 1653.12 217.6C1649.32 217.6 1646.38 218.7 1644.32 220.9C1642.32 223.1 1641.32 226.233 1641.32 230.3V232.8L1665.72 232.7L1664.92 233.6ZM1691.48 265V210H1702.18V220.5H1704.78L1702.18 223C1702.18 218.6 1703.48 215.167 1706.08 212.7C1708.68 210.233 1712.28 209 1716.88 209C1722.34 209 1726.71 210.767 1729.98 214.3C1733.24 217.767 1734.88 222.467 1734.88 228.4V265H1724.08V229.6C1724.08 226 1723.11 223.233 1721.18 221.3C1719.24 219.367 1716.61 218.4 1713.28 218.4C1709.88 218.4 1707.18 219.433 1705.18 221.5C1703.24 223.5 1702.28 226.433 1702.28 230.3V265H1691.48ZM1779.04 265C1774.04 265 1770.14 263.633 1767.34 260.9C1764.54 258.167 1763.14 254.367 1763.14 249.5V219.8H1747.94V210H1763.14V194.5H1773.94V210H1795.44V219.8H1773.94V249.5C1773.94 253.3 1775.77 255.2 1779.44 255.2H1794.44V265H1779.04ZM1893.36 266C1888.83 266 1884.86 265.167 1881.46 263.5C1878.13 261.767 1875.53 259.3 1873.66 256.1C1871.86 252.833 1870.96 249.033 1870.96 244.7V212.3C1870.96 207.9 1871.86 204.1 1873.66 200.9C1875.53 197.7 1878.13 195.267 1881.46 193.6C1884.86 191.867 1888.83 191 1893.36 191C1897.89 191 1901.83 191.867 1905.16 193.6C1908.49 195.333 1911.06 197.8 1912.86 201C1914.73 204.133 1915.66 207.9 1915.66 212.3H1904.86C1904.86 208.5 1903.86 205.6 1901.86 203.6C1899.86 201.6 1897.03 200.6 1893.36 200.6C1889.69 200.6 1886.83 201.6 1884.76 203.6C1882.76 205.6 1881.76 208.467 1881.76 212.2V244.7C1881.76 248.433 1882.76 251.333 1884.76 253.4C1886.83 255.467 1889.69 256.5 1893.36 256.5C1897.03 256.5 1899.86 255.467 1901.86 253.4C1903.86 251.333 1904.86 248.433 1904.86 244.7V236.5H1891.26V227H1915.66V244.7C1915.66 249.033 1914.73 252.8 1912.86 256C1911.06 259.2 1908.49 261.667 1905.16 263.4C1901.83 265.133 1897.89 266 1893.36 266ZM1947.42 266C1941.69 266 1937.16 264.533 1933.82 261.6C1930.56 258.6 1928.92 254.533 1928.92 249.4C1928.92 244.2 1930.66 240.133 1934.12 237.2C1937.66 234.2 1942.49 232.7 1948.62 232.7H1963.92V227.6C1963.92 224.6 1962.99 222.267 1961.12 220.6C1959.26 218.933 1956.62 218.1 1953.22 218.1C1950.22 218.1 1947.72 218.767 1945.72 220.1C1943.72 221.367 1942.56 223.067 1942.22 225.2H1931.62C1932.22 220.267 1934.49 216.333 1938.42 213.4C1942.42 210.467 1947.46 209 1953.52 209C1960.06 209 1965.22 210.667 1969.02 214C1972.82 217.267 1974.72 221.733 1974.72 227.4V265H1964.22V254.9H1962.42L1964.22 252.9C1964.22 256.9 1962.69 260.1 1959.62 262.5C1956.56 264.833 1952.49 266 1947.42 266ZM1950.62 257.7C1954.49 257.7 1957.66 256.733 1960.12 254.8C1962.66 252.8 1963.92 250.267 1963.92 247.2V240H1948.82C1946.02 240 1943.79 240.767 1942.12 242.3C1940.52 243.833 1939.72 245.933 1939.72 248.6C1939.72 251.4 1940.69 253.633 1942.62 255.3C1944.56 256.9 1947.22 257.7 1950.62 257.7ZM2018.88 265C2013.88 265 2009.98 263.633 2007.18 260.9C2004.38 258.167 2002.98 254.367 2002.98 249.5V219.8H1987.78V210H2002.98V194.5H2013.78V210H2035.28V219.8H2013.78V249.5C2013.78 253.3 2015.62 255.2 2019.28 255.2H2034.28V265H2018.88ZM2072.84 266C2068.38 266 2064.44 265.133 2061.04 263.4C2057.71 261.6 2055.14 259.1 2053.34 255.9C2051.54 252.7 2050.64 248.967 2050.64 244.7V230.3C2050.64 225.967 2051.54 222.233 2053.34 219.1C2055.14 215.9 2057.71 213.433 2061.04 211.7C2064.44 209.9 2068.38 209 2072.84 209C2077.38 209 2081.31 209.9 2084.64 211.7C2087.98 213.433 2090.54 215.9 2092.34 219.1C2094.14 222.233 2095.04 225.967 2095.04 230.3V240.1H2061.04V244.7C2061.04 248.767 2062.04 251.867 2064.04 254C2066.11 256.133 2069.08 257.2 2072.94 257.2C2076.08 257.2 2078.61 256.667 2080.54 255.6C2082.48 254.467 2083.68 252.833 2084.14 250.7H2094.84C2094.04 255.367 2091.64 259.1 2087.64 261.9C2083.64 264.633 2078.71 266 2072.84 266ZM2084.64 233.6V230.2C2084.64 226.2 2083.64 223.1 2081.64 220.9C2079.64 218.7 2076.71 217.6 2072.84 217.6C2069.04 217.6 2066.11 218.7 2064.04 220.9C2062.04 223.1 2061.04 226.233 2061.04 230.3V232.8L2085.44 232.7L2084.64 233.6ZM2114.1 265L2105.6 210H2114.7L2119.8 246.3C2120.07 247.967 2120.3 249.833 2120.5 251.9C2120.77 253.9 2120.97 255.567 2121.1 256.9C2121.24 255.567 2121.44 253.9 2121.7 251.9C2122.04 249.9 2122.34 248.033 2122.6 246.3L2128.3 210H2137.4L2143 246.3C2143.27 248.033 2143.54 249.933 2143.8 252C2144.14 254 2144.37 255.667 2144.5 257C2144.64 255.6 2144.84 253.9 2145.1 251.9C2145.44 249.833 2145.74 247.967 2146 246.3L2151.2 210H2160L2151.2 265H2139.8L2134.4 229.1C2134.14 227.233 2133.84 225.267 2133.5 223.2C2133.17 221.067 2132.94 219.367 2132.8 218.1C2132.6 219.367 2132.34 221.067 2132 223.2C2131.74 225.267 2131.47 227.233 2131.2 229.1L2125.6 265H2114.1ZM2187.27 266C2181.53 266 2177 264.533 2173.67 261.6C2170.4 258.6 2168.77 254.533 2168.77 249.4C2168.77 244.2 2170.5 240.133 2173.97 237.2C2177.5 234.2 2182.33 232.7 2188.47 232.7H2203.77V227.6C2203.77 224.6 2202.83 222.267 2200.97 220.6C2199.1 218.933 2196.47 218.1 2193.07 218.1C2190.07 218.1 2187.57 218.767 2185.57 220.1C2183.57 221.367 2182.4 223.067 2182.07 225.2H2171.47C2172.07 220.267 2174.33 216.333 2178.27 213.4C2182.27 210.467 2187.3 209 2193.37 209C2199.9 209 2205.07 210.667 2208.87 214C2212.67 217.267 2214.57 221.733 2214.57 227.4V265H2204.07V254.9H2202.27L2204.07 252.9C2204.07 256.9 2202.53 260.1 2199.47 262.5C2196.4 264.833 2192.33 266 2187.27 266ZM2190.47 257.7C2194.33 257.7 2197.5 256.733 2199.97 254.8C2202.5 252.8 2203.77 250.267 2203.77 247.2V240H2188.67C2185.87 240 2183.63 240.767 2181.97 242.3C2180.37 243.833 2179.57 245.933 2179.57 248.6C2179.57 251.4 2180.53 253.633 2182.47 255.3C2184.4 256.9 2187.07 257.7 2190.47 257.7ZM2239.93 283L2247.83 261.8L2227.33 210H2239.23L2250.73 241C2251.19 242.333 2251.66 243.933 2252.13 245.8C2252.59 247.667 2252.99 249.2 2253.33 250.4C2253.59 249.2 2253.96 247.667 2254.43 245.8C2254.89 243.933 2255.36 242.333 2255.83 241L2266.63 210H2278.13L2251.33 283H2239.93Z" fill="#AB92BF"/>
<path d="M1193.95 430.6C1189.91 430.6 1186.87 429.54 1184.83 427.42C1182.79 425.3 1182.05 422.46 1182.61 418.9H1185.61C1185.21 421.62 1185.81 423.8 1187.41 425.44C1189.01 427.08 1191.35 427.9 1194.43 427.9C1197.43 427.9 1199.89 427.16 1201.81 425.68C1203.77 424.16 1204.95 422.06 1205.35 419.38C1205.71 416.94 1205.39 414.88 1204.39 413.2C1203.39 411.52 1201.77 410.34 1199.53 409.66L1194.67 408.16C1191.95 407.32 1189.95 405.86 1188.67 403.78C1187.39 401.7 1186.97 399.26 1187.41 396.46C1187.77 394.22 1188.55 392.3 1189.75 390.7C1190.99 389.06 1192.59 387.8 1194.55 386.92C1196.51 386.04 1198.71 385.6 1201.15 385.6C1204.83 385.6 1207.57 386.64 1209.37 388.72C1211.21 390.76 1211.85 393.56 1211.29 397.12H1208.29C1208.73 394.44 1208.25 392.3 1206.85 390.7C1205.45 389.1 1203.39 388.3 1200.67 388.3C1197.87 388.3 1195.55 389 1193.71 390.4C1191.87 391.8 1190.77 393.74 1190.41 396.22C1190.09 398.46 1190.41 400.4 1191.37 402.04C1192.33 403.68 1193.81 404.82 1195.81 405.46L1200.67 406.96C1203.51 407.84 1205.61 409.4 1206.97 411.64C1208.37 413.88 1208.85 416.4 1208.41 419.2C1208.05 421.52 1207.21 423.54 1205.89 425.26C1204.57 426.94 1202.89 428.26 1200.85 429.22C1198.85 430.14 1196.55 430.6 1193.95 430.6ZM1229.69 430.6C1227.25 430.6 1225.23 430.12 1223.63 429.16C1222.03 428.16 1220.91 426.76 1220.27 424.96C1219.63 423.16 1219.49 421.04 1219.85 418.6L1221.47 408.4C1221.87 405.96 1222.67 403.86 1223.87 402.1C1225.11 400.3 1226.69 398.9 1228.61 397.9C1230.53 396.9 1232.71 396.4 1235.15 396.4C1237.59 396.4 1239.59 396.9 1241.15 397.9C1242.71 398.9 1243.81 400.3 1244.45 402.1C1245.13 403.86 1245.27 405.96 1244.87 408.4L1243.97 414.1H1223.57L1222.85 418.6C1222.41 421.48 1222.81 423.76 1224.05 425.44C1225.29 427.12 1227.31 427.96 1230.11 427.96C1232.35 427.96 1234.27 427.42 1235.87 426.34C1237.51 425.26 1238.77 423.78 1239.65 421.9H1242.65C1241.97 423.66 1241.01 425.2 1239.77 426.52C1238.53 427.84 1237.05 428.86 1235.33 429.58C1233.65 430.26 1231.77 430.6 1229.69 430.6ZM1241.27 412.06L1241.87 408.4C1242.31 405.52 1241.91 403.24 1240.67 401.56C1239.47 399.88 1237.49 399.04 1234.73 399.04C1231.93 399.04 1229.63 399.88 1227.83 401.56C1226.03 403.2 1224.91 405.48 1224.47 408.4L1223.99 411.52H1242.05L1241.27 412.06ZM1265.72 430.6C1263.32 430.6 1261.3 430.12 1259.66 429.16C1258.06 428.16 1256.92 426.76 1256.24 424.96C1255.6 423.16 1255.46 421.04 1255.82 418.6L1257.44 408.4C1257.84 405.96 1258.66 403.86 1259.9 402.1C1261.14 400.3 1262.72 398.9 1264.64 397.9C1266.6 396.9 1268.78 396.4 1271.18 396.4C1274.82 396.4 1277.54 397.44 1279.34 399.52C1281.18 401.56 1281.82 404.32 1281.26 407.8H1278.26C1278.7 405.08 1278.24 402.96 1276.88 401.44C1275.52 399.92 1273.46 399.16 1270.7 399.16C1267.98 399.16 1265.7 399.98 1263.86 401.62C1262.02 403.22 1260.88 405.48 1260.44 408.4L1258.82 418.6C1258.38 421.48 1258.82 423.74 1260.14 425.38C1261.46 427.02 1263.48 427.84 1266.2 427.84C1268.96 427.84 1271.24 427.08 1273.04 425.56C1274.88 424 1276.02 421.88 1276.46 419.2H1279.46C1278.9 422.68 1277.38 425.46 1274.9 427.54C1272.42 429.58 1269.36 430.6 1265.72 430.6ZM1301.52 430.6C1297.96 430.6 1295.34 429.52 1293.66 427.36C1291.98 425.16 1291.44 422.16 1292.04 418.36L1295.4 397H1298.4L1295.04 418.36C1294.56 421.36 1294.94 423.7 1296.18 425.38C1297.42 427.06 1299.36 427.9 1302 427.9C1304.68 427.9 1306.9 427.06 1308.66 425.38C1310.46 423.7 1311.6 421.36 1312.08 418.36L1315.44 397H1318.44L1315.08 418.36C1314.68 420.88 1313.86 423.06 1312.62 424.9C1311.42 426.7 1309.86 428.1 1307.94 429.1C1306.06 430.1 1303.92 430.6 1301.52 430.6ZM1327.3 430L1332.52 397H1335.52L1334.8 401.5H1336.12L1333.78 405.4C1334.22 402.56 1335.4 400.36 1337.32 398.8C1339.28 397.2 1341.74 396.4 1344.7 396.4C1348.22 396.4 1350.82 397.48 1352.5 399.64C1354.18 401.8 1354.74 404.72 1354.18 408.4L1353.88 410.2H1350.58L1350.88 408.4C1351.36 405.44 1350.98 403.14 1349.74 401.5C1348.5 399.82 1346.52 398.98 1343.8 398.98C1341.12 398.98 1338.88 399.82 1337.08 401.5C1335.32 403.14 1334.2 405.44 1333.72 408.4L1330.3 430H1327.3ZM1373.59 430.6C1371.15 430.6 1369.13 430.12 1367.53 429.16C1365.93 428.16 1364.81 426.76 1364.17 424.96C1363.53 423.16 1363.39 421.04 1363.75 418.6L1365.37 408.4C1365.77 405.96 1366.57 403.86 1367.77 402.1C1369.01 400.3 1370.59 398.9 1372.51 397.9C1374.43 396.9 1376.61 396.4 1379.05 396.4C1381.49 396.4 1383.49 396.9 1385.05 397.9C1386.61 398.9 1387.71 400.3 1388.35 402.1C1389.03 403.86 1389.17 405.96 1388.77 408.4L1387.87 414.1H1367.47L1366.75 418.6C1366.31 421.48 1366.71 423.76 1367.95 425.44C1369.19 427.12 1371.21 427.96 1374.01 427.96C1376.25 427.96 1378.17 427.42 1379.77 426.34C1381.41 425.26 1382.67 423.78 1383.55 421.9H1386.55C1385.87 423.66 1384.91 425.2 1383.67 426.52C1382.43 427.84 1380.95 428.86 1379.23 429.58C1377.55 430.26 1375.67 430.6 1373.59 430.6ZM1385.17 412.06L1385.77 408.4C1386.21 405.52 1385.81 403.24 1384.57 401.56C1383.37 399.88 1381.39 399.04 1378.63 399.04C1375.83 399.04 1373.53 399.88 1371.73 401.56C1369.93 403.2 1368.81 405.48 1368.37 408.4L1367.89 411.52H1385.95L1385.17 412.06ZM1434.81 430L1435.23 427.24H1444.59L1450.65 388.9H1441.29L1441.77 386.14H1463.37L1462.89 388.9H1453.65L1447.59 427.24H1456.83L1456.41 430H1434.81ZM1470.18 430L1475.4 397H1478.4L1477.5 402.7H1478.88L1476.6 405.76C1477.04 402.92 1478.26 400.66 1480.26 398.98C1482.3 397.26 1484.78 396.4 1487.7 396.4C1490.94 396.4 1493.36 397.44 1494.96 399.52C1496.6 401.6 1497.14 404.42 1496.58 407.98L1493.1 430H1490.1L1493.52 408.4C1494 405.44 1493.62 403.14 1492.38 401.5C1491.18 399.82 1489.28 398.98 1486.68 398.98C1484.04 398.98 1481.8 399.82 1479.96 401.5C1478.16 403.18 1477.04 405.48 1476.6 408.4L1473.18 430H1470.18ZM1521.16 430C1518.64 430 1516.8 429.36 1515.64 428.08C1514.52 426.8 1514.16 424.94 1514.56 422.5L1518.16 399.7H1508.56L1508.98 397H1518.58L1520.02 388H1523.02L1521.58 397H1535.08L1534.66 399.7H1521.16L1517.56 422.5C1517.08 425.7 1518.42 427.3 1521.58 427.3H1529.68L1529.26 430H1521.16ZM1553.48 430.6C1551.04 430.6 1549.02 430.12 1547.42 429.16C1545.82 428.16 1544.7 426.76 1544.06 424.96C1543.42 423.16 1543.28 421.04 1543.64 418.6L1545.26 408.4C1545.66 405.96 1546.46 403.86 1547.66 402.1C1548.9 400.3 1550.48 398.9 1552.4 397.9C1554.32 396.9 1556.5 396.4 1558.94 396.4C1561.38 396.4 1563.38 396.9 1564.94 397.9C1566.5 398.9 1567.6 400.3 1568.24 402.1C1568.92 403.86 1569.06 405.96 1568.66 408.4L1567.76 414.1H1547.36L1546.64 418.6C1546.2 421.48 1546.6 423.76 1547.84 425.44C1549.08 427.12 1551.1 427.96 1553.9 427.96C1556.14 427.96 1558.06 427.42 1559.66 426.34C1561.3 425.26 1562.56 423.78 1563.44 421.9H1566.44C1565.76 423.66 1564.8 425.2 1563.56 426.52C1562.32 427.84 1560.84 428.86 1559.12 429.58C1557.44 430.26 1555.56 430.6 1553.48 430.6ZM1565.06 412.06L1565.66 408.4C1566.1 405.52 1565.7 403.24 1564.46 401.56C1563.26 399.88 1561.28 399.04 1558.52 399.04C1555.72 399.04 1553.42 399.88 1551.62 401.56C1549.82 403.2 1548.7 405.48 1548.26 408.4L1547.78 411.52H1565.84L1565.06 412.06ZM1579.13 430L1584.35 397H1587.35L1586.63 401.5H1587.95L1585.61 405.4C1586.05 402.56 1587.23 400.36 1589.15 398.8C1591.11 397.2 1593.57 396.4 1596.53 396.4C1600.05 396.4 1602.65 397.48 1604.33 399.64C1606.01 401.8 1606.57 404.72 1606.01 408.4L1605.71 410.2H1602.41L1602.71 408.4C1603.19 405.44 1602.81 403.14 1601.57 401.5C1600.33 399.82 1598.35 398.98 1595.63 398.98C1592.95 398.98 1590.71 399.82 1588.91 401.5C1587.15 403.14 1586.03 405.44 1585.55 408.4L1582.13 430H1579.13ZM1614.09 430L1619.31 397H1622.31L1621.41 402.7H1622.79L1620.51 405.76C1620.95 402.92 1622.17 400.66 1624.17 398.98C1626.21 397.26 1628.69 396.4 1631.61 396.4C1634.85 396.4 1637.27 397.44 1638.87 399.52C1640.51 401.6 1641.05 404.42 1640.49 407.98L1637.01 430H1634.01L1637.43 408.4C1637.91 405.44 1637.53 403.14 1636.29 401.5C1635.09 399.82 1633.19 398.98 1630.59 398.98C1627.95 398.98 1625.71 399.82 1623.87 401.5C1622.07 403.18 1620.95 405.48 1620.51 408.4L1617.09 430H1614.09ZM1660.57 430.6C1657.29 430.6 1654.83 429.52 1653.19 427.36C1651.55 425.16 1651.01 422.26 1651.57 418.66L1653.19 408.4C1653.59 406 1654.37 403.9 1655.53 402.1C1656.73 400.3 1658.23 398.9 1660.03 397.9C1661.83 396.9 1663.83 396.4 1666.03 396.4C1668.91 396.4 1671.13 397.22 1672.69 398.86C1674.25 400.5 1674.81 402.68 1674.37 405.4L1673.29 401.5H1674.37L1675.09 397H1678.09L1672.87 430H1669.87L1670.59 425.5H1668.91L1671.79 421.6C1671.39 424.32 1670.13 426.5 1668.01 428.14C1665.93 429.78 1663.45 430.6 1660.57 430.6ZM1661.59 428.02C1664.31 428.02 1666.55 427.2 1668.31 425.56C1670.11 423.88 1671.23 421.58 1671.67 418.66L1673.29 408.4C1673.73 405.44 1673.33 403.14 1672.09 401.5C1670.89 399.82 1668.93 398.98 1666.21 398.98C1663.53 398.98 1661.29 399.82 1659.49 401.5C1657.73 403.14 1656.63 405.44 1656.19 408.4L1654.57 418.66C1654.13 421.58 1654.51 423.88 1655.71 425.56C1656.95 427.2 1658.91 428.02 1661.59 428.02ZM1701.04 430C1698.52 430 1696.68 429.36 1695.52 428.08C1694.4 426.8 1694.04 424.94 1694.44 422.5L1698.04 399.7H1688.44L1688.86 397H1698.46L1699.9 388H1702.9L1701.46 397H1714.96L1714.54 399.7H1701.04L1697.44 422.5C1696.96 425.7 1698.3 427.3 1701.46 427.3H1709.56L1709.14 430H1701.04ZM1721.12 430L1721.54 427.3H1733.6L1737.98 399.7H1727.42L1727.84 397H1741.4L1736.6 427.3H1747.94L1747.52 430H1721.12ZM1741.04 390.7C1740 390.7 1739.16 390.4 1738.52 389.8C1737.88 389.2 1737.56 388.4 1737.56 387.4C1737.56 386.4 1737.88 385.6 1738.52 385C1739.16 384.4 1740 384.1 1741.04 384.1C1742.08 384.1 1742.92 384.4 1743.56 385C1744.2 385.6 1744.52 386.4 1744.52 387.4C1744.52 388.4 1744.2 389.2 1743.56 389.8C1742.92 390.4 1742.08 390.7 1741.04 390.7ZM1769.28 430.6C1766.92 430.6 1764.94 430.12 1763.34 429.16C1761.74 428.16 1760.6 426.76 1759.92 424.96C1759.28 423.16 1759.14 421.04 1759.5 418.6L1761.12 408.4C1761.52 405.96 1762.34 403.86 1763.58 402.1C1764.82 400.3 1766.4 398.9 1768.32 397.9C1770.24 396.9 1772.38 396.4 1774.74 396.4C1777.1 396.4 1779.08 396.9 1780.68 397.9C1782.28 398.9 1783.42 400.3 1784.1 402.1C1784.78 403.86 1784.92 405.96 1784.52 408.4L1782.9 418.6C1782.54 421.04 1781.72 423.16 1780.44 424.96C1779.2 426.76 1777.62 428.16 1775.7 429.16C1773.82 430.12 1771.68 430.6 1769.28 430.6ZM1769.7 427.96C1772.46 427.96 1774.72 427.14 1776.48 425.5C1778.28 423.86 1779.42 421.56 1779.9 418.6L1781.52 408.4C1782 405.44 1781.6 403.14 1780.32 401.5C1779.04 399.86 1777.04 399.04 1774.32 399.04C1771.6 399.04 1769.34 399.86 1767.54 401.5C1765.74 403.14 1764.6 405.44 1764.12 408.4L1762.5 418.6C1762.02 421.56 1762.4 423.86 1763.64 425.5C1764.92 427.14 1766.94 427.96 1769.7 427.96ZM1793.97 430L1799.19 397H1802.19L1801.29 402.7H1802.67L1800.39 405.76C1800.83 402.92 1802.05 400.66 1804.05 398.98C1806.09 397.26 1808.57 396.4 1811.49 396.4C1814.73 396.4 1817.15 397.44 1818.75 399.52C1820.39 401.6 1820.93 404.42 1820.37 407.98L1816.89 430H1813.89L1817.31 408.4C1817.79 405.44 1817.41 403.14 1816.17 401.5C1814.97 399.82 1813.07 398.98 1810.47 398.98C1807.83 398.98 1805.59 399.82 1803.75 401.5C1801.95 403.18 1800.83 405.48 1800.39 408.4L1796.97 430H1793.97ZM1840.45 430.6C1837.17 430.6 1834.71 429.52 1833.07 427.36C1831.43 425.16 1830.89 422.26 1831.45 418.66L1833.07 408.4C1833.47 406 1834.25 403.9 1835.41 402.1C1836.61 400.3 1838.11 398.9 1839.91 397.9C1841.71 396.9 1843.71 396.4 1845.91 396.4C1848.79 396.4 1851.01 397.22 1852.57 398.86C1854.13 400.5 1854.69 402.68 1854.25 405.4L1853.17 401.5H1854.25L1854.97 397H1857.97L1852.75 430H1849.75L1850.47 425.5H1848.79L1851.67 421.6C1851.27 424.32 1850.01 426.5 1847.89 428.14C1845.81 429.78 1843.33 430.6 1840.45 430.6ZM1841.47 428.02C1844.19 428.02 1846.43 427.2 1848.19 425.56C1849.99 423.88 1851.11 421.58 1851.55 418.66L1853.17 408.4C1853.61 405.44 1853.21 403.14 1851.97 401.5C1850.77 399.82 1848.81 398.98 1846.09 398.98C1843.41 398.98 1841.17 399.82 1839.37 401.5C1837.61 403.14 1836.51 405.44 1836.07 408.4L1834.45 418.66C1834.01 421.58 1834.39 423.88 1835.59 425.56C1836.83 427.2 1838.79 428.02 1841.47 428.02ZM1881.22 430C1878.54 430 1876.58 429.3 1875.34 427.9C1874.1 426.5 1873.68 424.5 1874.08 421.9L1879.3 388.9H1868.8L1869.28 386.2H1882.78L1877.08 421.9C1876.8 423.66 1877.04 425 1877.8 425.92C1878.6 426.84 1879.88 427.3 1881.64 427.3H1892.14L1891.72 430H1881.22ZM1937.88 430L1944.84 386.2H1957.74C1960.3 386.2 1962.44 386.7 1964.16 387.7C1965.88 388.7 1967.1 390.12 1967.82 391.96C1968.58 393.76 1968.76 395.9 1968.36 398.38C1968 400.82 1967.14 402.96 1965.78 404.8C1964.46 406.64 1962.78 408.06 1960.74 409.06C1958.7 410.06 1956.4 410.56 1953.84 410.56H1943.94L1940.88 430H1937.88ZM1944.42 407.8H1954.32C1957.24 407.8 1959.7 406.96 1961.7 405.28C1963.7 403.56 1964.92 401.26 1965.36 398.38C1965.84 395.46 1965.34 393.16 1963.86 391.48C1962.42 389.8 1960.22 388.96 1957.26 388.96H1947.36L1944.42 407.8ZM1984.35 430.6C1981.07 430.6 1978.61 429.52 1976.97 427.36C1975.33 425.16 1974.79 422.26 1975.35 418.66L1976.97 408.4C1977.37 406 1978.15 403.9 1979.31 402.1C1980.51 400.3 1982.01 398.9 1983.81 397.9C1985.61 396.9 1987.61 396.4 1989.81 396.4C1992.69 396.4 1994.91 397.22 1996.47 398.86C1998.03 400.5 1998.59 402.68 1998.15 405.4L1997.07 401.5H1998.15L1998.87 397H2001.87L1996.65 430H1993.65L1994.37 425.5H1992.69L1995.57 421.6C1995.17 424.32 1993.91 426.5 1991.79 428.14C1989.71 429.78 1987.23 430.6 1984.35 430.6ZM1985.37 428.02C1988.09 428.02 1990.33 427.2 1992.09 425.56C1993.89 423.88 1995.01 421.58 1995.45 418.66L1997.07 408.4C1997.51 405.44 1997.11 403.14 1995.87 401.5C1994.67 399.82 1992.71 398.98 1989.99 398.98C1987.31 398.98 1985.07 399.82 1983.27 401.5C1981.51 403.14 1980.41 405.44 1979.97 408.4L1978.35 418.66C1977.91 421.58 1978.29 423.88 1979.49 425.56C1980.73 427.2 1982.69 428.02 1985.37 428.02ZM2011.51 440.8L2011.99 438.1H2020.69C2023.05 438.1 2024.93 437.48 2026.33 436.24C2027.77 435.04 2028.69 433.26 2029.09 430.9L2029.69 427L2030.59 421.3H2029.21L2031.49 418.24C2031.05 421.08 2029.83 423.36 2027.83 425.08C2025.83 426.76 2023.35 427.6 2020.39 427.6C2017.15 427.6 2014.71 426.56 2013.07 424.48C2011.47 422.36 2010.95 419.54 2011.51 416.02L2014.51 397H2017.51L2014.57 415.6C2014.09 418.56 2014.47 420.88 2015.71 422.56C2016.95 424.2 2018.85 425.02 2021.41 425.02C2024.05 425.02 2026.27 424.18 2028.07 422.5C2029.91 420.82 2031.05 418.52 2031.49 415.6L2034.43 397H2037.43L2032.09 430.9C2031.57 434.18 2030.29 436.64 2028.25 438.28C2026.25 439.96 2023.57 440.8 2020.21 440.8H2011.51ZM2043.95 430L2049.17 397H2051.81L2051.09 401.5H2051.45L2051.21 402.34C2051.45 400.54 2052.15 399.1 2053.31 398.02C2054.51 396.94 2055.99 396.4 2057.75 396.4C2059.47 396.4 2060.77 396.92 2061.65 397.96C2062.57 399 2062.99 400.46 2062.91 402.34L2062.79 401.5H2063.27L2063.03 402.34C2063.27 400.54 2063.97 399.1 2065.13 398.02C2066.29 396.94 2067.75 396.4 2069.51 396.4C2071.51 396.4 2072.95 397.1 2073.83 398.5C2074.71 399.86 2074.95 401.74 2074.55 404.14L2070.47 430H2067.53L2071.55 404.5C2071.83 402.78 2071.67 401.42 2071.07 400.42C2070.47 399.42 2069.51 398.92 2068.19 398.92C2066.79 398.92 2065.59 399.44 2064.59 400.48C2063.59 401.48 2062.95 402.82 2062.67 404.5L2058.65 430H2055.77L2059.79 404.5C2060.07 402.78 2059.91 401.42 2059.31 400.42C2058.71 399.42 2057.75 398.92 2056.43 398.92C2055.11 398.92 2053.95 399.42 2052.95 400.42C2051.95 401.42 2051.27 402.78 2050.91 404.5L2046.89 430H2043.95ZM2093.12 430.6C2090.68 430.6 2088.66 430.12 2087.06 429.16C2085.46 428.16 2084.34 426.76 2083.7 424.96C2083.06 423.16 2082.92 421.04 2083.28 418.6L2084.9 408.4C2085.3 405.96 2086.1 403.86 2087.3 402.1C2088.54 400.3 2090.12 398.9 2092.04 397.9C2093.96 396.9 2096.14 396.4 2098.58 396.4C2101.02 396.4 2103.02 396.9 2104.58 397.9C2106.14 398.9 2107.24 400.3 2107.88 402.1C2108.56 403.86 2108.7 405.96 2108.3 408.4L2107.4 414.1H2087L2086.28 418.6C2085.84 421.48 2086.24 423.76 2087.48 425.44C2088.72 427.12 2090.74 427.96 2093.54 427.96C2095.78 427.96 2097.7 427.42 2099.3 426.34C2100.94 425.26 2102.2 423.78 2103.08 421.9H2106.08C2105.4 423.66 2104.44 425.2 2103.2 426.52C2101.96 427.84 2100.48 428.86 2098.76 429.58C2097.08 430.26 2095.2 430.6 2093.12 430.6ZM2104.7 412.06L2105.3 408.4C2105.74 405.52 2105.34 403.24 2104.1 401.56C2102.9 399.88 2100.92 399.04 2098.16 399.04C2095.36 399.04 2093.06 399.88 2091.26 401.56C2089.46 403.2 2088.34 405.48 2087.9 408.4L2087.42 411.52H2105.48L2104.7 412.06ZM2117.76 430L2122.98 397H2125.98L2125.08 402.7H2126.46L2124.18 405.76C2124.62 402.92 2125.84 400.66 2127.84 398.98C2129.88 397.26 2132.36 396.4 2135.28 396.4C2138.52 396.4 2140.94 397.44 2142.54 399.52C2144.18 401.6 2144.72 404.42 2144.16 407.98L2140.68 430H2137.68L2141.1 408.4C2141.58 405.44 2141.2 403.14 2139.96 401.5C2138.76 399.82 2136.86 398.98 2134.26 398.98C2131.62 398.98 2129.38 399.82 2127.54 401.5C2125.74 403.18 2124.62 405.48 2124.18 408.4L2120.76 430H2117.76ZM2168.74 430C2166.22 430 2164.38 429.36 2163.22 428.08C2162.1 426.8 2161.74 424.94 2162.14 422.5L2165.74 399.7H2156.14L2156.56 397H2166.16L2167.6 388H2170.6L2169.16 397H2182.66L2182.24 399.7H2168.74L2165.14 422.5C2164.66 425.7 2166 427.3 2169.16 427.3H2177.26L2176.84 430H2168.74ZM2225.69 430L2232.65 386.2H2245.55C2248.11 386.2 2250.25 386.7 2251.97 387.7C2253.69 388.7 2254.91 390.12 2255.63 391.96C2256.39 393.76 2256.57 395.9 2256.17 398.38C2255.81 400.82 2254.95 402.96 2253.59 404.8C2252.27 406.64 2250.59 408.06 2248.55 409.06C2246.51 410.06 2244.21 410.56 2241.65 410.56H2231.75L2228.69 430H2225.69ZM2232.23 407.8H2242.13C2245.05 407.8 2247.51 406.96 2249.51 405.28C2251.51 403.56 2252.73 401.26 2253.17 398.38C2253.65 395.46 2253.15 393.16 2251.67 391.48C2250.23 389.8 2248.03 388.96 2245.07 388.96H2235.17L2232.23 407.8ZM2272.95 430.6C2270.59 430.6 2268.61 430.12 2267.01 429.16C2265.41 428.16 2264.27 426.76 2263.59 424.96C2262.95 423.16 2262.81 421.04 2263.17 418.6L2264.79 408.4C2265.19 405.96 2266.01 403.86 2267.25 402.1C2268.49 400.3 2270.07 398.9 2271.99 397.9C2273.91 396.9 2276.05 396.4 2278.41 396.4C2280.77 396.4 2282.75 396.9 2284.35 397.9C2285.95 398.9 2287.09 400.3 2287.77 402.1C2288.45 403.86 2288.59 405.96 2288.19 408.4L2286.57 418.6C2286.21 421.04 2285.39 423.16 2284.11 424.96C2282.87 426.76 2281.29 428.16 2279.37 429.16C2277.49 430.12 2275.35 430.6 2272.95 430.6ZM2273.37 427.96C2276.13 427.96 2278.39 427.14 2280.15 425.5C2281.95 423.86 2283.09 421.56 2283.57 418.6L2285.19 408.4C2285.67 405.44 2285.27 403.14 2283.99 401.5C2282.71 399.86 2280.71 399.04 2277.99 399.04C2275.27 399.04 2273.01 399.86 2271.21 401.5C2269.41 403.14 2268.27 405.44 2267.79 408.4L2266.17 418.6C2265.69 421.56 2266.07 423.86 2267.31 425.5C2268.59 427.14 2270.61 427.96 2273.37 427.96ZM2298.66 430L2303.88 397H2306.88L2306.16 401.5H2307.48L2305.14 405.4C2305.58 402.56 2306.76 400.36 2308.68 398.8C2310.64 397.2 2313.1 396.4 2316.06 396.4C2319.58 396.4 2322.18 397.48 2323.86 399.64C2325.54 401.8 2326.1 404.72 2325.54 408.4L2325.24 410.2H2321.94L2322.24 408.4C2322.72 405.44 2322.34 403.14 2321.1 401.5C2319.86 399.82 2317.88 398.98 2315.16 398.98C2312.48 398.98 2310.24 399.82 2308.44 401.5C2306.68 403.14 2305.56 405.44 2305.08 408.4L2301.66 430H2298.66ZM2348.62 430C2346.1 430 2344.26 429.36 2343.1 428.08C2341.98 426.8 2341.62 424.94 2342.02 422.5L2345.62 399.7H2336.02L2336.44 397H2346.04L2347.48 388H2350.48L2349.04 397H2362.54L2362.12 399.7H2348.62L2345.02 422.5C2344.54 425.7 2345.88 427.3 2349.04 427.3H2357.14L2356.72 430H2348.62ZM2380.1 430.6C2376.82 430.6 2374.36 429.52 2372.72 427.36C2371.08 425.16 2370.54 422.26 2371.1 418.66L2372.72 408.4C2373.12 406 2373.9 403.9 2375.06 402.1C2376.26 400.3 2377.76 398.9 2379.56 397.9C2381.36 396.9 2383.36 396.4 2385.56 396.4C2388.44 396.4 2390.66 397.22 2392.22 398.86C2393.78 400.5 2394.34 402.68 2393.9 405.4L2392.82 401.5H2393.9L2394.62 397H2397.62L2392.4 430H2389.4L2390.12 425.5H2388.44L2391.32 421.6C2390.92 424.32 2389.66 426.5 2387.54 428.14C2385.46 429.78 2382.98 430.6 2380.1 430.6ZM2381.12 428.02C2383.84 428.02 2386.08 427.2 2387.84 425.56C2389.64 423.88 2390.76 421.58 2391.2 418.66L2392.82 408.4C2393.26 405.44 2392.86 403.14 2391.62 401.5C2390.42 399.82 2388.46 398.98 2385.74 398.98C2383.06 398.98 2380.82 399.82 2379.02 401.5C2377.26 403.14 2376.16 405.44 2375.72 408.4L2374.1 418.66C2373.66 421.58 2374.04 423.88 2375.24 425.56C2376.48 427.2 2378.44 428.02 2381.12 428.02ZM2420.87 430C2418.19 430 2416.23 429.3 2414.99 427.9C2413.75 426.5 2413.33 424.5 2413.73 421.9L2418.95 388.9H2408.45L2408.93 386.2H2422.43L2416.73 421.9C2416.45 423.66 2416.69 425 2417.45 425.92C2418.25 426.84 2419.53 427.3 2421.29 427.3H2431.79L2431.37 430H2420.87Z" fill="#AB92BF"/>
<path d="M312.376 870V797H331.276C336.009 797 340.076 797.9 343.476 799.7C346.942 801.5 349.609 804.033 351.476 807.3C353.409 810.567 354.376 814.433 354.376 818.9V848C354.376 852.467 353.409 856.367 351.476 859.7C349.609 862.967 346.942 865.5 343.476 867.3C340.076 869.1 336.009 870 331.276 870H312.376ZM321.376 862H331.276C335.676 862 339.109 860.767 341.576 858.3C344.109 855.833 345.376 852.4 345.376 848V818.9C345.376 814.567 344.109 811.167 341.576 808.7C339.109 806.233 335.676 805 331.276 805H321.376V862ZM393.137 871C388.803 871 385.003 870.133 381.737 868.4C378.537 866.667 376.037 864.233 374.237 861.1C372.503 857.9 371.637 854.2 371.637 850V835C371.637 830.733 372.503 827.033 374.237 823.9C376.037 820.767 378.537 818.333 381.737 816.6C385.003 814.867 388.803 814 393.137 814C397.47 814 401.237 814.867 404.437 816.6C407.703 818.333 410.203 820.767 411.937 823.9C413.737 827.033 414.637 830.733 414.637 835V844.7H380.437V850C380.437 854.333 381.537 857.667 383.737 860C385.937 862.267 389.07 863.4 393.137 863.4C396.603 863.4 399.403 862.8 401.537 861.6C403.67 860.333 404.97 858.467 405.437 856H414.437C413.837 860.6 411.57 864.267 407.637 867C403.77 869.667 398.937 871 393.137 871ZM405.837 838.7V835C405.837 830.667 404.737 827.333 402.537 825C400.403 822.667 397.27 821.5 393.137 821.5C389.07 821.5 385.937 822.667 383.737 825C381.537 827.333 380.437 830.667 380.437 835V837.9H406.537L405.837 838.7ZM460.598 870C457.398 870 454.598 869.367 452.198 868.1C449.798 866.833 447.931 865.033 446.598 862.7C445.264 860.367 444.598 857.633 444.598 854.5V805.2H426.098V797H453.598V854.5C453.598 856.767 454.231 858.567 455.498 859.9C456.764 861.167 458.464 861.8 460.598 861.8H478.098V870H460.598ZM519.059 870C514.325 870 510.625 868.733 507.959 866.2C505.359 863.667 504.059 860.1 504.059 855.5V823.2H488.559V815H504.059V799.5H513.059V815H535.059V823.2H513.059V855.5C513.059 859.7 515.059 861.8 519.059 861.8H534.059V870H519.059ZM568.22 871C562.42 871 557.853 869.533 554.52 866.6C551.186 863.6 549.52 859.567 549.52 854.5C549.52 849.367 551.186 845.333 554.52 842.4C557.853 839.467 562.353 838 568.02 838H585.02V832.5C585.02 829.1 583.986 826.5 581.92 824.7C579.92 822.833 577.053 821.9 573.32 821.9C570.053 821.9 567.32 822.6 565.12 824C562.92 825.333 561.653 827.167 561.32 829.5H552.32C552.92 824.767 555.153 821 559.02 818.2C562.886 815.4 567.72 814 573.52 814C579.853 814 584.853 815.633 588.52 818.9C592.186 822.167 594.02 826.6 594.02 832.2V870H585.22V859.5H583.72L585.22 858C585.22 862 583.653 865.167 580.52 867.5C577.453 869.833 573.353 871 568.22 871ZM570.42 863.9C574.686 863.9 578.186 862.833 580.92 860.7C583.653 858.567 585.02 855.833 585.02 852.5V844.7H568.22C565.22 844.7 562.853 845.533 561.12 847.2C559.386 848.867 558.52 851.133 558.52 854C558.52 857.067 559.553 859.5 561.62 861.3C563.753 863.033 566.686 863.9 570.42 863.9ZM672.141 870V797H695.641C700.175 797 704.108 797.9 707.441 799.7C710.775 801.433 713.341 803.9 715.141 807.1C717.008 810.3 717.941 814.1 717.941 818.5C717.941 822.833 717.008 826.633 715.141 829.9C713.341 833.1 710.775 835.6 707.441 837.4C704.108 839.133 700.175 840 695.641 840H681.141V870H672.141ZM681.141 831.9H695.641C699.575 831.9 702.708 830.7 705.041 828.3C707.441 825.833 708.641 822.567 708.641 818.5C708.641 814.367 707.441 811.1 705.041 808.7C702.708 806.3 699.575 805.1 695.641 805.1H681.141V831.9ZM748.102 871C742.302 871 737.736 869.533 734.402 866.6C731.069 863.6 729.402 859.567 729.402 854.5C729.402 849.367 731.069 845.333 734.402 842.4C737.736 839.467 742.236 838 747.902 838H764.902V832.5C764.902 829.1 763.869 826.5 761.802 824.7C759.802 822.833 756.936 821.9 753.202 821.9C749.936 821.9 747.202 822.6 745.002 824C742.802 825.333 741.536 827.167 741.202 829.5H732.202C732.802 824.767 735.036 821 738.902 818.2C742.769 815.4 747.602 814 753.402 814C759.736 814 764.736 815.633 768.402 818.9C772.069 822.167 773.902 826.6 773.902 832.2V870H765.102V859.5H763.602L765.102 858C765.102 862 763.536 865.167 760.402 867.5C757.336 869.833 753.236 871 748.102 871ZM750.302 863.9C754.569 863.9 758.069 862.833 760.802 860.7C763.536 858.567 764.902 855.833 764.902 852.5V844.7H748.102C745.102 844.7 742.736 845.533 741.002 847.2C739.269 848.867 738.402 851.133 738.402 854C738.402 857.067 739.436 859.5 741.502 861.3C743.636 863.033 746.569 863.9 750.302 863.9ZM800.663 888L808.763 866.6L788.363 815H798.363L811.163 849C811.63 850.133 812.063 851.5 812.463 853.1C812.863 854.633 813.197 855.933 813.463 857C813.73 855.933 814.063 854.633 814.463 853.1C814.863 851.5 815.263 850.133 815.663 849L827.663 815H837.363L810.263 888H800.663Z" fill="#AB92BF"/>
<rect x="1628.5" y="768.5" width="349" height="99" rx="24.5" fill="#D9D9D9" stroke="black"/>
<path d="M1690.8 850.75C1687.2 850.75 1684.1 850.15 1681.5 848.95C1678.95 847.75 1676.98 846.025 1675.58 843.775C1674.18 841.525 1673.45 838.85 1673.4 835.75H1680.15C1680.15 838.5 1681.08 840.675 1682.93 842.275C1684.83 843.875 1687.45 844.675 1690.8 844.675C1693.95 844.675 1696.4 843.9 1698.15 842.35C1699.95 840.8 1700.85 838.65 1700.85 835.9C1700.85 833.7 1700.25 831.775 1699.05 830.125C1697.9 828.475 1696.23 827.325 1694.03 826.675L1686.6 824.35C1682.85 823.2 1679.95 821.275 1677.9 818.575C1675.9 815.875 1674.9 812.7 1674.9 809.05C1674.9 806.1 1675.55 803.55 1676.85 801.4C1678.2 799.2 1680.08 797.5 1682.48 796.3C1684.88 795.05 1687.7 794.425 1690.95 794.425C1695.75 794.425 1699.6 795.775 1702.5 798.475C1705.4 801.125 1706.88 804.675 1706.93 809.125H1700.18C1700.18 806.425 1699.35 804.325 1697.7 802.825C1696.1 801.275 1693.83 800.5 1690.88 800.5C1687.98 800.5 1685.7 801.2 1684.05 802.6C1682.45 804 1681.65 805.95 1681.65 808.45C1681.65 810.7 1682.25 812.65 1683.45 814.3C1684.65 815.95 1686.38 817.125 1688.63 817.825L1696.13 820.225C1699.78 821.375 1702.6 823.325 1704.6 826.075C1706.6 828.825 1707.6 832.05 1707.6 835.75C1707.6 838.75 1706.9 841.375 1705.5 843.625C1704.1 845.875 1702.13 847.625 1699.58 848.875C1697.08 850.125 1694.15 850.75 1690.8 850.75ZM1735.47 850.75C1732.22 850.75 1729.37 850.1 1726.92 848.8C1724.52 847.5 1722.65 845.675 1721.3 843.325C1720 840.925 1719.35 838.15 1719.35 835V823.75C1719.35 820.55 1720 817.775 1721.3 815.425C1722.65 813.075 1724.52 811.25 1726.92 809.95C1729.37 808.65 1732.22 808 1735.47 808C1738.72 808 1741.55 808.65 1743.95 809.95C1746.4 811.25 1748.27 813.075 1749.57 815.425C1750.92 817.775 1751.6 820.55 1751.6 823.75V831.025H1725.95V835C1725.95 838.25 1726.77 840.75 1728.42 842.5C1730.07 844.2 1732.42 845.05 1735.47 845.05C1738.07 845.05 1740.17 844.6 1741.77 843.7C1743.37 842.75 1744.35 841.35 1744.7 839.5H1751.45C1751 842.95 1749.3 845.7 1746.35 847.75C1743.45 849.75 1739.82 850.75 1735.47 850.75ZM1745 826.525V823.75C1745 820.5 1744.17 818 1742.52 816.25C1740.92 814.5 1738.57 813.625 1735.47 813.625C1732.42 813.625 1730.07 814.5 1728.42 816.25C1726.77 818 1725.95 820.5 1725.95 823.75V825.925H1745.52L1745 826.525ZM1780.74 850.75C1777.44 850.75 1774.54 850.125 1772.04 848.875C1769.59 847.625 1767.69 845.825 1766.34 843.475C1764.99 841.075 1764.32 838.25 1764.32 835V823.75C1764.32 820.45 1764.99 817.625 1766.34 815.275C1767.69 812.925 1769.59 811.125 1772.04 809.875C1774.54 808.625 1777.44 808 1780.74 808C1785.49 808 1789.32 809.275 1792.22 811.825C1795.12 814.375 1796.64 817.85 1796.79 822.25H1790.04C1789.89 819.6 1788.99 817.575 1787.34 816.175C1785.74 814.725 1783.54 814 1780.74 814C1777.79 814 1775.44 814.85 1773.69 816.55C1771.94 818.2 1771.07 820.575 1771.07 823.675V835C1771.07 838.1 1771.94 840.5 1773.69 842.2C1775.44 843.9 1777.79 844.75 1780.74 844.75C1783.54 844.75 1785.74 844.025 1787.34 842.575C1788.99 841.125 1789.89 839.1 1790.04 836.5H1796.79C1796.64 840.9 1795.12 844.375 1792.22 846.925C1789.32 849.475 1785.49 850.75 1780.74 850.75ZM1825.34 850.75C1820.59 850.75 1816.79 849.35 1813.94 846.55C1811.09 843.7 1809.66 839.85 1809.66 835V808.75H1816.41V835C1816.41 838.1 1817.21 840.525 1818.81 842.275C1820.41 843.975 1822.59 844.825 1825.34 844.825C1828.14 844.825 1830.34 843.975 1831.94 842.275C1833.59 840.525 1834.41 838.1 1834.41 835V808.75H1841.16V835C1841.16 839.85 1839.71 843.7 1836.81 846.55C1833.91 849.35 1830.09 850.75 1825.34 850.75ZM1856.21 850V808.75H1862.81V816.625H1864.38L1862.21 821.5C1862.21 817.05 1863.16 813.7 1865.06 811.45C1867.01 809.15 1869.88 808 1873.68 808C1878.03 808 1881.48 809.375 1884.03 812.125C1886.63 814.825 1887.93 818.5 1887.93 823.15V825.625H1881.18V823.75C1881.18 820.5 1880.38 818.025 1878.78 816.325C1877.23 814.575 1875.01 813.7 1872.11 813.7C1869.26 813.7 1867.01 814.575 1865.36 816.325C1863.76 818.075 1862.96 820.55 1862.96 823.75V850H1856.21ZM1915.35 850.75C1912.1 850.75 1909.25 850.1 1906.8 848.8C1904.4 847.5 1902.53 845.675 1901.18 843.325C1899.88 840.925 1899.23 838.15 1899.23 835V823.75C1899.23 820.55 1899.88 817.775 1901.18 815.425C1902.53 813.075 1904.4 811.25 1906.8 809.95C1909.25 808.65 1912.1 808 1915.35 808C1918.6 808 1921.43 808.65 1923.83 809.95C1926.28 811.25 1928.15 813.075 1929.45 815.425C1930.8 817.775 1931.48 820.55 1931.48 823.75V831.025H1905.83V835C1905.83 838.25 1906.65 840.75 1908.3 842.5C1909.95 844.2 1912.3 845.05 1915.35 845.05C1917.95 845.05 1920.05 844.6 1921.65 843.7C1923.25 842.75 1924.23 841.35 1924.58 839.5H1931.33C1930.88 842.95 1929.18 845.7 1926.23 847.75C1923.33 849.75 1919.7 850.75 1915.35 850.75ZM1924.88 826.525V823.75C1924.88 820.5 1924.05 818 1922.4 816.25C1920.8 814.5 1918.45 813.625 1915.35 813.625C1912.3 813.625 1909.95 814.5 1908.3 816.25C1906.65 818 1905.83 820.5 1905.83 823.75V825.925H1925.4L1924.88 826.525Z" fill="#AB92BF"/>
<rect x="2028.5" y="768.5" width="419" height="99" rx="24.5" fill="#D9D9D9" stroke="black"/>
<path d="M2042.5 850V795.25H2074V801.4H2049.18V818.35H2071.38V824.425H2049.18V843.85H2074V850H2042.5ZM2096.47 850V819.025H2084.47V812.875H2096.47V805.75C2096.47 802.5 2097.5 799.95 2099.55 798.1C2101.6 796.2 2104.42 795.25 2108.02 795.25H2120.1V801.4H2108.02C2106.47 801.4 2105.27 801.775 2104.42 802.525C2103.62 803.225 2103.22 804.3 2103.22 805.75V812.875H2120.1V819.025H2103.22V850H2096.47ZM2141.44 850V819.025H2129.44V812.875H2141.44V805.75C2141.44 802.5 2142.47 799.95 2144.52 798.1C2146.57 796.2 2149.39 795.25 2152.99 795.25H2165.07V801.4H2152.99C2151.44 801.4 2150.24 801.775 2149.39 802.525C2148.59 803.225 2148.19 804.3 2148.19 805.75V812.875H2165.07V819.025H2148.19V850H2141.44ZM2176.29 850V843.85H2190.91V814.9H2178.16V808.75H2197.66V843.85H2211.54V850H2176.29ZM2193.54 801.325C2191.89 801.325 2190.59 800.9 2189.64 800.05C2188.69 799.2 2188.21 798.05 2188.21 796.6C2188.21 795.1 2188.69 793.925 2189.64 793.075C2190.59 792.175 2191.89 791.725 2193.54 791.725C2195.19 791.725 2196.49 792.175 2197.44 793.075C2198.39 793.925 2198.86 795.1 2198.86 796.6C2198.86 798.05 2198.39 799.2 2197.44 800.05C2196.49 800.9 2195.19 801.325 2193.54 801.325ZM2237.68 850.75C2234.38 850.75 2231.48 850.125 2228.98 848.875C2226.53 847.625 2224.63 845.825 2223.28 843.475C2221.93 841.075 2221.26 838.25 2221.26 835V823.75C2221.26 820.45 2221.93 817.625 2223.28 815.275C2224.63 812.925 2226.53 811.125 2228.98 809.875C2231.48 808.625 2234.38 808 2237.68 808C2242.43 808 2246.26 809.275 2249.16 811.825C2252.06 814.375 2253.58 817.85 2253.73 822.25H2246.98C2246.83 819.6 2245.93 817.575 2244.28 816.175C2242.68 814.725 2240.48 814 2237.68 814C2234.73 814 2232.38 814.85 2230.63 816.55C2228.88 818.2 2228.01 820.575 2228.01 823.675V835C2228.01 838.1 2228.88 840.5 2230.63 842.2C2232.38 843.9 2234.73 844.75 2237.68 844.75C2240.48 844.75 2242.68 844.025 2244.28 842.575C2245.93 841.125 2246.83 839.1 2246.98 836.5H2253.73C2253.58 840.9 2252.06 844.375 2249.16 846.925C2246.26 849.475 2242.43 850.75 2237.68 850.75ZM2266.23 850V843.85H2280.85V814.9H2268.1V808.75H2287.6V843.85H2301.48V850H2266.23ZM2283.48 801.325C2281.83 801.325 2280.53 800.9 2279.58 800.05C2278.63 799.2 2278.15 798.05 2278.15 796.6C2278.15 795.1 2278.63 793.925 2279.58 793.075C2280.53 792.175 2281.83 791.725 2283.48 791.725C2285.13 791.725 2286.43 792.175 2287.38 793.075C2288.33 793.925 2288.8 795.1 2288.8 796.6C2288.8 798.05 2288.33 799.2 2287.38 800.05C2286.43 800.9 2285.13 801.325 2283.48 801.325ZM2327.32 850.75C2324.07 850.75 2321.22 850.1 2318.77 848.8C2316.37 847.5 2314.5 845.675 2313.15 843.325C2311.85 840.925 2311.2 838.15 2311.2 835V823.75C2311.2 820.55 2311.85 817.775 2313.15 815.425C2314.5 813.075 2316.37 811.25 2318.77 809.95C2321.22 808.65 2324.07 808 2327.32 808C2330.57 808 2333.4 808.65 2335.8 809.95C2338.25 811.25 2340.12 813.075 2341.42 815.425C2342.77 817.775 2343.45 820.55 2343.45 823.75V831.025H2317.8V835C2317.8 838.25 2318.62 840.75 2320.27 842.5C2321.92 844.2 2324.27 845.05 2327.32 845.05C2329.92 845.05 2332.02 844.6 2333.62 843.7C2335.22 842.75 2336.2 841.35 2336.55 839.5H2343.3C2342.85 842.95 2341.15 845.7 2338.2 847.75C2335.3 849.75 2331.67 850.75 2327.32 850.75ZM2336.85 826.525V823.75C2336.85 820.5 2336.02 818 2334.37 816.25C2332.77 814.5 2330.42 813.625 2327.32 813.625C2324.27 813.625 2321.92 814.5 2320.27 816.25C2318.62 818 2317.8 820.5 2317.8 823.75V825.925H2337.37L2336.85 826.525ZM2356.69 850V808.75H2363.44V816.625H2364.87L2363.44 818.2C2363.44 814.95 2364.42 812.45 2366.37 810.7C2368.32 808.9 2371.02 808 2374.47 808C2378.62 808 2381.92 809.275 2384.37 811.825C2386.82 814.375 2388.04 817.85 2388.04 822.25V850H2381.29V823C2381.29 820.05 2380.49 817.8 2378.89 816.25C2377.34 814.65 2375.22 813.85 2372.52 813.85C2369.72 813.85 2367.49 814.7 2365.84 816.4C2364.24 818.1 2363.44 820.55 2363.44 823.75V850H2356.69ZM2421.77 850C2418.22 850 2415.44 849.05 2413.44 847.15C2411.49 845.25 2410.52 842.575 2410.52 839.125V814.9H2398.89V808.75H2410.52V797.125H2417.27V808.75H2433.77V814.9H2417.27V839.125C2417.27 842.275 2418.77 843.85 2421.77 843.85H2433.02V850H2421.77Z" fill="#AB92BF"/>
</svg>
